<?xml version="1.0" standalone="no"?>
<!DOCTYPE svg PUBLIC "-//W3C//DTD SVG 20010904//EN"
 "http://www.w3.org/TR/2001/REC-SVG-20010904/DTD/svg10.dtd">
<svg version="1.0" xmlns="http://www.w3.org/2000/svg"
 width="1024.000000pt" height="1024.000000pt" viewBox="0 0 1024.000000 1024.000000"
 preserveAspectRatio="xMidYMid meet">
<metadata>
Created by potrace 1.16, written by Peter Selinger 2001-2019
</metadata>
<g transform="translate(0.000000,1024.000000) scale(0.100000,-0.100000)"
fill="#000000" stroke="none">
<path d="M4830 8184 c-358 -34 -641 -115 -963 -275 -573 -285 -1049 -836
-1256 -1454 -101 -300 -136 -532 -136 -895 1 -347 28 -532 120 -808 204 -612
682 -1147 1296 -1451 733 -364 1566 -356 2309 20 106 53 287 163 364 220 10 8
-141 199 -157 199 -3 0 -45 -26 -94 -59 -305 -202 -697 -342 -1068 -382 -69
-7 -183 -9 -305 -6 -162 5 -219 11 -340 36 -324 67 -669 220 -912 404 -38 28
-68 55 -68 60 0 13 91 117 102 117 5 0 48 -26 96 -58 563 -378 1218 -481 1825
-285 124 39 265 97 381 155 93 46 266 149 266 158 0 4 -36 50 -80 103 l-80 97
-1257 2 -1258 3 -58 27 c-82 39 -177 136 -208 213 l-24 60 -3 929 c-3 1040 -6
984 69 1070 22 25 65 57 97 73 49 24 69 28 142 28 47 0 90 4 96 8 7 4 15 28
19 54 11 77 62 218 116 325 267 519 881 789 1460 643 497 -126 851 -479 947
-945 l17 -85 130 -5 c109 -5 137 -10 173 -28 56 -30 114 -90 143 -150 l24 -47
5 -817 5 -816 190 -222 c105 -123 196 -232 204 -243 13 -18 17 -14 68 64 106
166 218 416 278 625 132 455 128 1013 -11 1497 -90 313 -215 557 -435 848
-428 568 -1073 921 -1804 989 -101 9 -342 11 -425 4z m492 -274 c361 -46 687
-166 974 -358 540 -361 897 -910 1003 -1542 61 -363 46 -736 -43 -1087 -34
-131 -117 -363 -131 -363 -14 0 -145 71 -145 79 0 5 16 53 35 106 101 278 155
623 142 907 -24 509 -182 945 -475 1309 -72 89 -273 287 -357 351 -295 224
-661 374 -1038 423 -975 126 -1925 -466 -2244 -1400 -48 -142 -99 -351 -117
-483 -34 -242 -15 -599 45 -836 26 -107 87 -291 111 -339 11 -22 18 -40 16
-42 -5 -5 -147 -75 -152 -75 -7 0 -66 147 -101 251 -82 243 -110 430 -110 754
0 281 13 387 70 610 112 434 305 776 615 1086 198 198 361 316 609 439 400
199 834 269 1293 210z"/>
<path d="M4765 7400 c-163 -35 -278 -82 -421 -175 -450 -292 -636 -918 -424
-1428 66 -159 209 -338 363 -454 145 -109 372 -202 547 -224 185 -23 417 2
571 61 30 11 55 20 55 20 1 0 4 -13 7 -29 4 -18 47 -77 107 -147 77 -90 100
-123 100 -145 0 -53 27 -97 145 -231 64 -72 162 -188 218 -257 56 -70 200
-245 322 -390 288 -345 309 -372 351 -452 59 -112 127 -159 230 -159 54 0 120
35 229 123 118 95 150 146 150 236 -1 49 -7 77 -24 109 -34 66 -98 130 -142
144 -25 7 -49 24 -66 47 -53 70 -364 442 -563 672 -243 281 -383 434 -418 456
-24 15 -44 20 -66 16 -30 -5 -37 2 -126 102 -52 58 -97 113 -98 121 -2 9 23
43 55 77 181 190 287 431 309 704 8 104 -10 288 -41 408 -103 408 -466 728
-905 800 -133 21 -350 19 -465 -5z m402 -105 c153 -29 315 -97 420 -176 141
-106 286 -292 343 -441 59 -152 72 -235 68 -408 -4 -130 -9 -169 -32 -245 -81
-275 -262 -493 -511 -615 -318 -156 -629 -156 -935 1 -265 135 -442 357 -522
652 -31 115 -31 364 0 480 61 225 193 423 372 559 119 91 332 181 475 201 74
10 249 6 322 -8z m544 -2097 c31 -35 71 -80 89 -101 l33 -39 -29 -23 c-16 -14
-34 -24 -39 -25 -9 0 -141 146 -157 174 -7 13 26 76 40 76 5 0 33 -28 63 -62z
m373 -154 c9 -8 16 -17 16 -19 0 -5 -237 -197 -258 -209 -16 -10 -42 11 -42
33 0 20 34 53 148 144 85 69 109 78 136 51z m111 -130 c15 -15 14 -18 -6 -40
-12 -12 -70 -61 -129 -108 -102 -80 -109 -84 -124 -67 -21 23 -20 26 7 52 40
39 218 179 227 179 5 0 16 -7 25 -16z m86 -234 c-31 -25 -85 -70 -121 -98
l-65 -52 -18 22 c-42 53 -42 52 41 121 42 35 97 78 121 95 l44 32 27 -37 27
-37 -56 -46z m224 -148 c367 -436 465 -555 465 -567 0 -7 -19 -29 -42 -49
l-41 -36 -34 40 c-19 22 -38 38 -43 35 -5 -3 -12 0 -16 6 -4 8 -3 9 4 5 24
-15 11 11 -21 42 -18 18 -37 29 -42 25 -4 -5 -5 -2 -1 4 8 14 -151 210 -166
205 -5 -1 -7 1 -5 5 3 5 -45 70 -108 145 -106 130 -113 136 -129 119 -9 -10
-13 -21 -9 -25 4 -4 0 -4 -9 -1 -10 4 -23 -3 -36 -19 -11 -14 -23 -26 -28 -26
-4 0 -16 -8 -26 -17 -18 -16 -21 -15 -58 27 l-39 45 27 27 c35 35 206 177 212
177 3 0 68 -75 145 -167z m618 -670 c16 -17 14 -21 -31 -64 -26 -25 -92 -81
-147 -125 l-100 -80 -24 29 c-13 16 -22 30 -20 32 97 81 285 226 294 226 7 0
19 -8 28 -18z"/>
<path d="M4873 7130 c-126 -19 -287 -85 -387 -160 -131 -98 -240 -251 -296
-416 -33 -95 -34 -106 -34 -249 -1 -130 2 -160 22 -225 90 -288 316 -504 607
-581 112 -29 288 -29 405 0 396 99 661 457 637 859 -10 160 -49 279 -137 411
-180 269 -495 408 -817 361z m307 -168 c73 -22 180 -72 180 -84 0 -5 -10 -13
-22 -18 -17 -6 -18 -9 -6 -9 30 -1 81 -134 72 -190 -3 -24 1 -47 13 -71 15
-29 17 -50 12 -125 -4 -77 -6 -82 -9 -35 l-3 55 -6 -45 c-4 -25 -3 -58 1 -75
11 -42 10 -77 -2 -70 -5 3 -10 2 -10 -3 0 -5 11 -9 24 -9 20 0 23 4 20 30 -3
24 -1 28 7 20 16 -16 -7 -125 -32 -158 -11 -13 -19 -30 -19 -39 0 -9 -7 -16
-15 -16 -8 0 -15 -5 -15 -11 0 -5 4 -7 10 -4 6 3 7 -1 4 -9 -3 -9 -10 -16 -14
-16 -5 0 -12 -9 -15 -20 -3 -11 -13 -20 -21 -20 -8 0 -21 -14 -28 -30 -7 -17
-15 -27 -19 -24 -8 8 -39 -15 -33 -25 3 -4 -9 -7 -25 -6 -23 0 -29 4 -29 22 0
23 -2 23 -120 23 l-120 0 0 -40 0 -40 -40 0 -40 0 0 80 0 80 -80 0 -80 0 0
-40 0 -40 40 0 40 0 0 -40 0 -40 -40 0 -40 0 0 40 0 40 -40 0 c-33 0 -40 -3
-40 -20 0 -13 -7 -20 -20 -20 -13 0 -20 -7 -20 -20 0 -17 -7 -20 -40 -20 -39
0 -40 -1 -40 -35 0 -28 4 -35 19 -35 22 0 35 -15 26 -30 -6 -10 -37 3 -63 28
-7 7 -17 10 -22 7 -14 -9 -80 77 -115 150 -52 108 -69 184 -69 310 0 121 15
187 64 285 99 196 281 331 511 380 66 14 234 4 309 -18z"/>
<path d="M3500 6314 c-23 -21 -44 -51 -50 -72 -6 -24 -10 -354 -10 -919 0
-866 0 -883 21 -937 26 -72 100 -140 173 -161 45 -13 206 -15 1219 -13 l1167
3 -63 77 c-34 42 -107 129 -162 193 -231 269 -235 275 -235 325 -1 43 -5 50
-81 130 -44 47 -85 84 -90 82 -5 -1 -8 4 -7 10 2 7 -4 11 -12 10 -8 -2 -53
-13 -100 -23 -216 -50 -521 -28 -734 52 -32 11 -59 19 -62 16 -2 -2 15 -12 39
-21 42 -16 44 -18 38 -49 -6 -27 -11 -32 -32 -29 -13 1 7 -11 46 -27 63 -26
95 -51 64 -51 -26 0 -760 237 -997 322 l-83 30 3 480 3 480 24 19 c17 14 39
19 82 19 l59 0 0 45 0 45 -90 0 c-89 0 -90 0 -130 -36z m142 -1252 c26 -22 45
-42 42 -45 -3 -3 4 -3 17 0 16 5 20 3 14 -6 -6 -10 -2 -11 16 -6 23 7 23 7 7
-12 -10 -11 -18 -24 -18 -29 0 -5 5 -1 11 8 5 9 16 15 24 12 8 -4 12 -10 9
-15 -9 -15 8 -10 28 8 18 16 18 16 12 -3 -7 -17 -6 -18 10 -5 14 12 19 12 29
1 10 -10 9 -11 -2 -5 -10 6 -12 4 -6 -4 4 -7 18 -11 32 -8 14 2 62 -8 107 -23
44 -15 123 -40 174 -56 55 -16 92 -33 92 -41 0 -7 2 -13 4 -13 2 0 13 -3 23
-6 16 -6 16 -5 -2 10 -18 16 -18 17 -2 12 10 -3 23 -6 28 -6 6 0 8 -4 5 -9 -4
-5 4 -7 16 -3 16 4 19 2 13 -8 -5 -9 -4 -11 3 -6 15 9 92 -12 92 -25 0 -6 9
-7 22 -3 20 6 21 5 9 -10 -12 -14 -12 -16 3 -10 9 3 16 1 16 -5 0 -6 -7 -11
-15 -11 -34 0 -12 -18 28 -22 54 -5 88 1 81 16 -3 6 1 3 9 -6 15 -19 43 -25
31 -7 -3 6 5 3 20 -6 14 -10 26 -25 26 -35 0 -10 12 -28 28 -39 15 -11 21 -21
14 -21 -7 0 -10 -5 -7 -10 5 -8 11 -8 20 0 10 8 15 8 21 -1 4 -7 3 -9 -4 -5
-6 3 -13 2 -17 -4 -6 -9 7 -14 28 -11 4 0 7 -3 7 -9 0 -5 7 -7 15 -4 8 4 13 9
11 13 -2 3 30 4 72 2 72 -4 74 -5 32 -11 -24 -4 -52 -5 -61 -3 -9 3 -19 1 -22
-4 -3 -5 11 -8 31 -7 20 1 52 0 70 -3 30 -5 32 -8 32 -44 0 -32 4 -39 19 -39
23 0 31 -17 24 -53 -5 -25 -10 -27 -52 -28 -147 -3 -295 -1 -433 6 l-158 7 0
34 0 34 -60 0 -60 0 0 40 0 40 -100 0 -100 0 0 40 0 40 -40 0 -40 0 0 -80 0
-80 -40 0 c-33 0 -40 -3 -40 -20 0 -18 7 -20 80 -20 70 0 80 -2 80 -17 0 -16
-12 -18 -98 -20 -53 -2 -107 -8 -120 -15 -18 -9 -36 -9 -80 0 -67 14 -114 56
-131 119 -7 23 -11 153 -11 326 0 326 -8 304 82 229z m1582 -184 c3 -13 6 -49
6 -80 l0 -58 -220 0 -220 0 0 80 0 80 214 0 c213 0 214 0 220 -22z"/>
<path d="M3920 4760 l0 -40 40 0 40 0 0 -40 0 -40 80 0 80 0 0 40 0 40 -80 0
-80 0 0 40 0 40 -40 0 -40 0 0 -40z"/>
<path d="M4478 4643 l-158 -4 0 -39 0 -40 150 0 c143 0 150 1 150 20 0 11 4
20 9 20 5 0 9 11 9 25 0 14 -1 24 -2 23 0 -1 -72 -4 -158 -5z"/>
<path d="M6300 6305 l0 -45 84 0 c97 0 116 -11 116 -66 l0 -34 -104 0 -103 0
-7 -52 c-26 -201 -132 -456 -251 -605 -36 -45 -65 -85 -65 -90 0 -5 22 -30 48
-56 33 -33 56 -47 75 -47 56 0 93 -28 208 -156 118 -130 227 -256 286 -329
l32 -40 1 719 c0 715 0 720 -21 764 -34 69 -64 82 -191 82 l-108 0 0 -45z"/>
<path d="M2300 2504 c0 -263 -6 -300 -53 -325 -29 -16 -100 -5 -135 20 -17 11
-32 21 -34 21 -12 0 -99 -132 -95 -143 3 -7 33 -28 67 -46 152 -81 326 -35
395 104 18 36 20 65 23 328 l3 287 -86 0 -85 0 0 -246z"/>
<path d="M2769 2732 c-146 -49 -243 -173 -256 -329 -13 -161 94 -323 254 -383
126 -47 293 -5 382 97 174 197 120 497 -107 601 -76 34 -192 40 -273 14z m226
-196 c70 -54 94 -158 56 -241 -44 -95 -151 -140 -237 -99 -47 22 -100 85 -115
134 -24 78 24 182 102 223 53 28 146 20 194 -17z"/>
<path d="M3295 2478 c-4 -150 -5 -318 -3 -373 l5 -100 199 0 c187 0 201 1 241
23 53 28 80 56 104 107 37 79 19 178 -43 242 l-32 33 21 22 c90 96 31 273
-100 307 -26 6 -121 11 -215 11 l-170 0 -7 -272z m353 86 c26 -18 29 -60 5
-86 -13 -15 -31 -18 -100 -18 l-83 0 0 60 0 60 78 0 c54 0 84 -5 100 -16z m26
-280 c17 -16 21 -61 8 -80 -16 -24 -54 -34 -131 -34 l-81 0 0 65 0 65 94 0
c73 0 98 -4 110 -16z"/>
<path d="M3930 2375 l0 -376 88 3 87 3 3 143 3 142 114 0 115 0 0 -145 0 -145
84 0 84 0 7 203 c3 111 5 279 3 372 l-3 170 -87 3 -88 3 0 -146 0 -145 -115 0
-115 0 0 145 0 145 -90 0 -90 0 0 -375z"/>
<path d="M4572 2468 l3 -283 30 -54 c34 -62 98 -114 163 -132 61 -17 179 -7
235 20 26 13 61 41 78 63 59 74 63 96 67 396 l3 272 -90 0 -91 0 0 -250 c0
-269 -3 -290 -52 -324 -48 -34 -124 -10 -152 48 -13 29 -16 73 -16 280 l0 246
-91 0 -90 0 3 -282z"/>
<path d="M5200 2548 c0 -112 3 -281 7 -375 l6 -173 83 0 84 0 2 222 3 221 145
-219 145 -219 83 -3 82 -3 0 376 0 375 -90 0 -90 0 0 -206 c0 -125 -4 -203 -9
-199 -6 3 -65 87 -132 188 -67 100 -129 190 -137 200 -12 14 -32 17 -99 17
l-83 0 0 -202z"/>
<path d="M5887 2743 c-4 -8 -4 -22 1 -120 l2 -43 80 0 80 0 0 -290 0 -290 85
0 85 0 0 290 0 290 80 0 80 0 0 85 0 85 -244 0 c-135 0 -247 -3 -249 -7z"/>
<path d="M6432 2378 l3 -373 235 0 235 0 3 30 c2 16 1 53 -3 82 l-6 53 -58 0
c-32 0 -99 3 -150 7 l-92 6 3 56 3 56 135 3 135 2 -3 75 -4 75 -134 0 -134 0
0 65 0 65 150 0 150 0 0 85 0 85 -235 0 -235 0 2 -372z"/>
<path d="M6962 2378 l3 -373 82 -3 81 -3 6 83 c4 46 7 106 9 133 l2 50 65
-108 c102 -169 88 -158 202 -155 l96 3 -94 139 -93 139 50 17 c95 33 139 98
139 208 0 83 -17 128 -67 177 -56 54 -108 65 -310 65 l-173 0 2 -372z m355
187 c41 -28 37 -101 -6 -125 -11 -5 -48 -11 -83 -11 -106 -2 -98 -9 -98 76 l0
75 83 0 c57 0 89 -5 104 -15z"/>
<path d="M7719 2736 c-72 -26 -108 -64 -135 -145 -14 -45 -15 -60 -5 -106 23
-104 80 -154 234 -205 74 -24 93 -46 74 -88 -21 -46 -97 -41 -172 13 -55 39
-53 40 -117 -37 l-41 -49 34 -35 c103 -106 306 -124 410 -37 66 56 93 156 65
241 -24 71 -65 103 -182 142 -54 18 -108 43 -121 56 -67 67 29 124 126 75 45
-23 59 -17 111 49 l33 41 -24 26 c-41 44 -116 73 -189 72 -36 0 -81 -6 -101
-13z"/>
</g>
</svg>
