<?xml version="1.0" standalone="no"?>
<!DOCTYPE svg PUBLIC "-//W3C//DTD SVG 20010904//EN"
 "http://www.w3.org/TR/2001/REC-SVG-20010904/DTD/svg10.dtd">
<svg version="1.0" xmlns="http://www.w3.org/2000/svg"
 width="102.000000pt" height="102.000000pt" viewBox="0 0 102.000000 102.000000"
 preserveAspectRatio="xMidYMid meet">
<metadata>
Created by potrace 1.16, written by Peter Selinger 2001-2019
</metadata>
<g transform="translate(0.000000,102.000000) scale(0.100000,-0.100000)"
fill="#000000" stroke="none">
<path d="M379 936 c-31 -12 -70 -32 -87 -44 -71 -51 -128 -149 -144 -248 -25
-164 56 -314 210 -387 59 -28 77 -32 152 -32 75 0 93 4 152 32 51 24 66 36 62
47 -8 21 -8 21 -71 -11 -100 -49 -247 -39 -327 22 -38 29 -4 31 54 2 82 -41
171 -42 255 -3 49 22 56 28 45 41 -10 12 -45 15 -195 15 -164 0 -184 2 -198
18 -14 16 -17 43 -17 163 0 150 5 169 42 169 11 0 18 7 18 18 0 34 56 98 99
116 102 40 221 -7 252 -101 6 -21 17 -33 28 -33 41 0 51 -30 51 -154 0 -117 0
-119 30 -153 l31 -34 25 54 c88 194 -10 431 -211 506 -78 29 -181 28 -256 -3z
m233 -27 c91 -23 183 -121 214 -227 25 -85 4 -266 -27 -235 -6 6 -6 19 1 38 6
16 11 62 11 102 0 320 -414 431 -566 152 -33 -61 -45 -175 -26 -244 6 -22 7
-43 2 -48 -17 -17 -36 59 -36 143 0 103 27 170 96 239 87 88 197 114 331 80z"/>
<path d="M420 828 c-58 -40 -75 -72 -75 -143 0 -74 18 -106 81 -143 30 -17 51
-22 94 -20 50 3 56 1 75 -27 37 -54 177 -225 185 -225 12 0 60 41 60 51 0 13
-164 199 -195 222 l-24 17 24 37 c53 77 23 198 -58 237 -51 24 -127 21 -167
-6z m145 -8 c76 -37 106 -130 65 -198 -32 -52 -76 -74 -138 -69 -45 3 -59 9
-89 39 -72 72 -51 187 41 229 52 24 70 24 121 -1z"/>
<path d="M455 801 c-11 -5 -28 -17 -37 -27 -87 -98 19 -244 136 -189 44 21 66
59 66 116 0 33 -6 47 -34 75 -27 27 -42 34 -72 33 -22 0 -48 -4 -59 -8z m94
-24 c6 -8 13 -34 16 -59 4 -34 1 -48 -10 -58 -18 -15 -65 -20 -65 -8 0 4 -5 8
-11 8 -5 0 -7 -5 -3 -12 4 -7 3 -8 -5 -4 -6 4 -19 2 -27 -5 -21 -18 -34 4 -34
58 0 34 5 46 31 67 34 29 89 35 108 13z"/>
<path d="M287 693 c-11 -11 -8 -263 3 -284 10 -18 23 -19 186 -19 l175 0 -45
58 -44 58 -69 -2 c-45 -1 -89 5 -130 18 l-63 20 0 67 c0 39 5 72 12 79 9 9 9
12 -3 12 -9 0 -19 -3 -22 -7z"/>
<path d="M167 162 c-24 -26 -21 -59 8 -78 29 -19 58 -12 73 19 10 21 11 21 11
-5 1 -24 5 -28 29 -28 49 0 55 14 43 103 -1 4 -17 7 -36 7 -31 0 -35 -3 -35
-27 l0 -28 -13 25 c-16 32 -57 38 -80 12z"/>
<path d="M350 125 c0 -42 3 -55 15 -55 8 0 15 9 15 20 0 11 7 20 15 20 8 0 15
-9 15 -20 0 -23 18 -27 26 -5 5 13 8 13 21 0 20 -21 39 -19 63 7 l20 22 0 -22
c0 -35 18 -26 22 11 l3 32 18 -33 c23 -43 41 -36 45 17 4 55 26 50 30 -7 4
-56 22 -54 22 3 0 25 5 45 10 45 6 0 10 5 10 10 0 6 -22 10 -50 10 -48 0 -50
-1 -50 -27 l-1 -28 -20 28 c-14 19 -30 27 -50 27 -27 0 -29 -2 -29 -40 0 -29
-4 -40 -15 -40 -11 0 -15 11 -15 40 0 38 -2 40 -30 40 -23 0 -30 -4 -30 -20 0
-11 -7 -20 -15 -20 -8 0 -15 9 -15 20 0 11 -7 20 -15 20 -12 0 -15 -13 -15
-55z"/>
</g>
</svg>
